{"asset":{"version":"2.0","generator":"Blockbench 4.9.4 glTF exporter"},"scenes":[{"nodes":[38],"name":"blockbench_export"}],"scene":0,"nodes":[{"translation":[0,0.0625,-4],"name":"bone4"},{"translation":[0,0,-4],"name":"bone3"},{"translation":[-0.125,1.1875,-1.3125],"name":"bone"},{"translation":[0.8750000000000001,2.220446049250313e-16,-2.25],"name":"Piston_Right2"},{"translation":[-1.5,0.4999999999999998,2.5],"name":"Desert_Buggy_Vehicle2","children":[3]},{"translation":[-1.5,0.5,-2.5],"name":"Wheel_Front_Left_Wheel","mesh":0},{"translation":[-1.5,0.5,1.5],"name":"Wheel_Back_Left_Wheel","mesh":1},{"translation":[1.5,0.5,1.5],"name":"Wheel_Back_Right_Wheel","mesh":2},{"translation":[1.5,0.5,-2.5],"name":"Wheel_Front_Right_Wheel","mesh":3},{"translation":[0.5625,-0.1875,-0.6875],"name":"Piston","mesh":4},{"translation":[-0.1874999999999999,-5.551115123125783e-17,-1.3125000000000002],"name":"Piston_Arm","mesh":5},{"translation":[-0.4374999999999999,0.5000000000000002,-0.25],"name":"Piston_Left","children":[9,10]},{"translation":[-0.5625,-0.1875,-0.6875],"name":"Piston","mesh":6},{"translation":[0.1874999999999999,-5.551115123125783e-17,-1.3125000000000002],"name":"Piston_Arm","mesh":7},{"translation":[0.4374999999999999,0.5000000000000002,-0.25],"name":"Piston_Right","children":[12,13]},{"translation":[1.125,-0.5,2.5],"name":"Wheel_Mount","mesh":8},{"translation":[-1.125,0.5000000000000002,-2.5],"name":"Wheel_Mount_Front_Left","children":[15]},{"translation":[-1.125,-0.5,2.5],"name":"Wheel_Mount","mesh":9},{"translation":[1.125,0.5000000000000002,-2.5],"name":"Wheel_Mount_Front_Right","children":[17]},{"rotation":[0,-0.7071067811865475,0,0.7071067811865476],"name":"Suspension","mesh":10},{"rotation":[-0.1014646060602008,0.6997892066308599,0.10146460606020082,0.6997892066308599],"translation":[-0.25,0.7500000000000002,1.5],"name":"Suspension_Left","children":[19]},{"rotation":[0,0.7071067811865475,0,0.7071067811865476],"name":"Suspension","mesh":11},{"rotation":[-0.1014646060602008,-0.6997892066308599,-0.10146460606020082,0.6997892066308599],"translation":[0.25,0.7500000000000002,1.5],"name":"Suspension_Right","children":[21]},{"translation":[1.125,-0.5,2.5],"name":"Wheel_Mount","mesh":12},{"translation":[-1.125,0.5000000000000002,1.5],"name":"Wheel_Mount_Back_Left","children":[23]},{"translation":[-1.1249999999999991,-0.5,2.5],"name":"Wheel_Mount","mesh":13},{"translation":[1.1249999999999991,0.5000000000000002,1.5],"name":"Wheel_Mount_Back_Right","children":[25]},{"rotation":[0,0,-0.7071067811865475,0.7071067811865476],"translation":[0,0.75,1.9375],"name":"Fuel_Tank","mesh":14},{"translation":[0,0,0.625],"name":"Body","mesh":15},{"rotation":[-0.13052619222005157,0,0,0.9914448613738104],"translation":[0,1.5083307298809907,-0.4985584043577686],"name":"Cabin","mesh":16},{"translation":[0,0.4375,0],"name":"Chassis","mesh":17},{"translation":[0,1.9375,1.25],"name":"Spoiler","mesh":18},{"rotation":[0,0,0.25881904510252074,0.9659258262890683],"translation":[-0.5,0.5,-0.0625],"name":"Body_Panel_Left","mesh":19},{"rotation":[0,0,0.25881904510252074,0.9659258262890683],"translation":[-0.125,1.1875,1.3125],"name":"Engine_Left","mesh":20},{"rotation":[0,0,-0.25881904510252074,0.9659258262890683],"translation":[0.125,1.1875,1.3125],"name":"Engine_Right","mesh":21},{"rotation":[0,0,-0.25881904510252074,0.9659258262890683],"translation":[0.5,0.5,-0.0625],"name":"Body_Panel_Right","mesh":22},{"translation":[0,2.220446049250313e-16,0],"name":"Body","children":[27,28,29,30,31,32,33,34,35]},{"translation":[0,-2.220446049250313e-16,0],"name":"Desert_Buggy_Vehicle","children":[5,6,7,8,11,14,16,18,20,22,24,26,36]},{"children":[0,1,2,4,37]}],"bufferViews":[{"buffer":0,"byteOffset":0,"byteLength":1440,"target":34962,"byteStride":12},{"buffer":0,"byteOffset":1440,"byteLength":1440,"target":34962,"byteStride":12},{"buffer":0,"byteOffset":2880,"byteLength":960,"target":34962,"byteStride":8},{"buffer":0,"byteOffset":3840,"byteLength":288,"target":34963},{"buffer":0,"byteOffset":4128,"byteLength":1440,"target":34962,"byteStride":12},{"buffer":0,"byteOffset":5568,"byteLength":1440,"target":34962,"byteStride":12},{"buffer":0,"byteOffset":7008,"byteLength":960,"target":34962,"byteStride":8},{"buffer":0,"byteOffset":7968,"byteLength":288,"target":34963},{"buffer":0,"byteOffset":8256,"byteLength":1440,"target":34962,"byteStride":12},{"buffer":0,"byteOffset":9696,"byteLength":1440,"target":34962,"byteStride":12},{"buffer":0,"byteOffset":11136,"byteLength":960,"target":34962,"byteStride":8},{"buffer":0,"byteOffset":12096,"byteLength":288,"target":34963},{"buffer":0,"byteOffset":12384,"byteLength":1440,"target":34962,"byteStride":12},{"buffer":0,"byteOffset":13824,"byteLength":1440,"target":34962,"byteStride":12},{"buffer":0,"byteOffset":15264,"byteLength":960,"target":34962,"byteStride":8},{"buffer":0,"byteOffset":16224,"byteLength":288,"target":34963},{"buffer":0,"byteOffset":16512,"byteLength":288,"target":34962,"byteStride":12},{"buffer":0,"byteOffset":16800,"byteLength":288,"target":34962,"byteStride":12},{"buffer":0,"byteOffset":17088,"byteLength":192,"target":34962,"byteStride":8},{"buffer":0,"byteOffset":17280,"byteLength":72,"target":34963},{"buffer":0,"byteOffset":17352,"byteLength":240,"target":34962,"byteStride":12},{"buffer":0,"byteOffset":17592,"byteLength":240,"target":34962,"byteStride":12},{"buffer":0,"byteOffset":17832,"byteLength":160,"target":34962,"byteStride":8},{"buffer":0,"byteOffset":17992,"byteLength":60,"target":34963},{"buffer":0,"byteOffset":18052,"byteLength":288,"target":34962,"byteStride":12},{"buffer":0,"byteOffset":18340,"byteLength":288,"target":34962,"byteStride":12},{"buffer":0,"byteOffset":18628,"byteLength":192,"target":34962,"byteStride":8},{"buffer":0,"byteOffset":18820,"byteLength":72,"target":34963},{"buffer":0,"byteOffset":18892,"byteLength":240,"target":34962,"byteStride":12},{"buffer":0,"byteOffset":19132,"byteLength":240,"target":34962,"byteStride":12},{"buffer":0,"byteOffset":19372,"byteLength":160,"target":34962,"byteStride":8},{"buffer":0,"byteOffset":19532,"byteLength":60,"target":34963},{"buffer":0,"byteOffset":19592,"byteLength":288,"target":34962,"byteStride":12},{"buffer":0,"byteOffset":19880,"byteLength":288,"target":34962,"byteStride":12},{"buffer":0,"byteOffset":20168,"byteLength":192,"target":34962,"byteStride":8},{"buffer":0,"byteOffset":20360,"byteLength":72,"target":34963},{"buffer":0,"byteOffset":20432,"byteLength":288,"target":34962,"byteStride":12},{"buffer":0,"byteOffset":20720,"byteLength":288,"target":34962,"byteStride":12},{"buffer":0,"byteOffset":21008,"byteLength":192,"target":34962,"byteStride":8},{"buffer":0,"byteOffset":21200,"byteLength":72,"target":34963},{"buffer":0,"byteOffset":21272,"byteLength":192,"target":34962,"byteStride":12},{"buffer":0,"byteOffset":21464,"byteLength":192,"target":34962,"byteStride":12},{"buffer":0,"byteOffset":21656,"byteLength":128,"target":34962,"byteStride":8},{"buffer":0,"byteOffset":21784,"byteLength":48,"target":34963},{"buffer":0,"byteOffset":21832,"byteLength":192,"target":34962,"byteStride":12},{"buffer":0,"byteOffset":22024,"byteLength":192,"target":34962,"byteStride":12},{"buffer":0,"byteOffset":22216,"byteLength":128,"target":34962,"byteStride":8},{"buffer":0,"byteOffset":22344,"byteLength":48,"target":34963},{"buffer":0,"byteOffset":22392,"byteLength":288,"target":34962,"byteStride":12},{"buffer":0,"byteOffset":22680,"byteLength":288,"target":34962,"byteStride":12},{"buffer":0,"byteOffset":22968,"byteLength":192,"target":34962,"byteStride":8},{"buffer":0,"byteOffset":23160,"byteLength":72,"target":34963},{"buffer":0,"byteOffset":23232,"byteLength":288,"target":34962,"byteStride":12},{"buffer":0,"byteOffset":23520,"byteLength":288,"target":34962,"byteStride":12},{"buffer":0,"byteOffset":23808,"byteLength":192,"target":34962,"byteStride":8},{"buffer":0,"byteOffset":24000,"byteLength":72,"target":34963},{"buffer":0,"byteOffset":24072,"byteLength":960,"target":34962,"byteStride":12},{"buffer":0,"byteOffset":25032,"byteLength":960,"target":34962,"byteStride":12},{"buffer":0,"byteOffset":25992,"byteLength":640,"target":34962,"byteStride":8},{"buffer":0,"byteOffset":26632,"byteLength":192,"target":34963},{"buffer":0,"byteOffset":26824,"byteLength":288,"target":34962,"byteStride":12},{"buffer":0,"byteOffset":27112,"byteLength":288,"target":34962,"byteStride":12},{"buffer":0,"byteOffset":27400,"byteLength":192,"target":34962,"byteStride":8},{"buffer":0,"byteOffset":27592,"byteLength":72,"target":34963},{"buffer":0,"byteOffset":27664,"byteLength":288,"target":34962,"byteStride":12},{"buffer":0,"byteOffset":27952,"byteLength":288,"target":34962,"byteStride":12},{"buffer":0,"byteOffset":28240,"byteLength":192,"target":34962,"byteStride":8},{"buffer":0,"byteOffset":28432,"byteLength":72,"target":34963},{"buffer":0,"byteOffset":28504,"byteLength":288,"target":34962,"byteStride":12},{"buffer":0,"byteOffset":28792,"byteLength":288,"target":34962,"byteStride":12},{"buffer":0,"byteOffset":29080,"byteLength":192,"target":34962,"byteStride":8},{"buffer":0,"byteOffset":29272,"byteLength":72,"target":34963},{"buffer":0,"byteOffset":29344,"byteLength":288,"target":34962,"byteStride":12},{"buffer":0,"byteOffset":29632,"byteLength":288,"target":34962,"byteStride":12},{"buffer":0,"byteOffset":29920,"byteLength":192,"target":34962,"byteStride":8},{"buffer":0,"byteOffset":30112,"byteLength":72,"target":34963},{"buffer":0,"byteOffset":30184,"byteLength":240,"target":34962,"byteStride":12},{"buffer":0,"byteOffset":30424,"byteLength":240,"target":34962,"byteStride":12},{"buffer":0,"byteOffset":30664,"byteLength":160,"target":34962,"byteStride":8},{"buffer":0,"byteOffset":30824,"byteLength":60,"target":34963},{"buffer":0,"byteOffset":30884,"byteLength":288,"target":34962,"byteStride":12},{"buffer":0,"byteOffset":31172,"byteLength":288,"target":34962,"byteStride":12},{"buffer":0,"byteOffset":31460,"byteLength":192,"target":34962,"byteStride":8},{"buffer":0,"byteOffset":31652,"byteLength":72,"target":34963},{"buffer":0,"byteOffset":31724,"byteLength":288,"target":34962,"byteStride":12},{"buffer":0,"byteOffset":32012,"byteLength":288,"target":34962,"byteStride":12},{"buffer":0,"byteOffset":32300,"byteLength":192,"target":34962,"byteStride":8},{"buffer":0,"byteOffset":32492,"byteLength":72,"target":34963},{"buffer":0,"byteOffset":32564,"byteLength":240,"target":34962,"byteStride":12},{"buffer":0,"byteOffset":32804,"byteLength":240,"target":34962,"byteStride":12},{"buffer":0,"byteOffset":33044,"byteLength":160,"target":34962,"byteStride":8},{"buffer":0,"byteOffset":33204,"byteLength":60,"target":34963}],"buffers":[{"byteLength":33264,"uri":"data:application/octet-stream;base64,"}],"accessors":[{"bufferView":0,"componentType":5126,"count":120,"max":[0.1875,0.5,0.5],"min":[-0.1875,-0.5,-0.5],"type":"VEC3"},{"bufferView":1,"componentType":5126,"count":120,"max":[1,1,1],"min":[-1,-1,-1],"type":"VEC3"},{"bufferView":2,"componentType":5126,"count":120,"max":[0.7728968858718872,0.75],"min":[0.0005406250129453838,0.1875],"type":"VEC2"},{"bufferView":3,"componentType":5123,"count":144,"max":[119],"min":[0],"type":"SCALAR"},{"bufferView":4,"componentType":5126,"count":120,"max":[0.1875,0.5,0.5],"min":[-0.1875,-0.5,-0.5],"type":"VEC3"},{"bufferView":5,"componentType":5126,"count":120,"max":[1,1,1],"min":[-1,-1,-1],"type":"VEC3"},{"bufferView":6,"componentType":5126,"count":120,"max":[0.8041468858718872,0.75],"min":[0.10210312157869339,0],"type":"VEC2"},{"bufferView":7,"componentType":5123,"count":144,"max":[119],"min":[0],"type":"SCALAR"},{"bufferView":8,"componentType":5126,"count":120,"max":[0.1875,0.5,0.5],"min":[-0.1875,-0.5,-0.5],"type":"VEC3"},{"bufferView":9,"componentType":5126,"count":120,"max":[1,1,1],"min":[-1,-1,-1],"type":"VEC3"},{"bufferView":10,"componentType":5126,"count":120,"max":[0.8041468858718872,0.75],"min":[0.10210312157869339,0],"type":"VEC2"},{"bufferView":11,"componentType":5123,"count":144,"max":[119],"min":[0],"type":"SCALAR"},{"bufferView":12,"componentType":5126,"count":120,"max":[0.1875,0.5,0.5],"min":[-0.1875,-0.5,-0.5],"type":"VEC3"},{"bufferView":13,"componentType":5126,"count":120,"max":[1,1,1],"min":[-1,-1,-1],"type":"VEC3"},{"bufferView":14,"componentType":5126,"count":120,"max":[0.7728968858718872,0.75],"min":[0.0005406250129453838,0.1875],"type":"VEC2"},{"bufferView":15,"componentType":5123,"count":144,"max":[119],"min":[0],"type":"SCALAR"},{"bufferView":16,"componentType":5126,"count":24,"max":[-0.375,0.375,0.875],"min":[-0.75,0,-0.125],"type":"VEC3"},{"bufferView":17,"componentType":5126,"count":24,"max":[1,1,1],"min":[-1,-1,-1],"type":"VEC3"},{"bufferView":18,"componentType":5126,"count":24,"max":[0.8203125,0.765625],"min":[0.25,0.0625],"type":"VEC2"},{"bufferView":19,"componentType":5123,"count":36,"max":[23],"min":[0],"type":"SCALAR"},{"bufferView":20,"componentType":5126,"count":20,"max":[0.3125,0.125,1],"min":[0.0625,-0.125,-1],"type":"VEC3"},{"bufferView":21,"componentType":5126,"count":20,"max":[1,1,0],"min":[-1,-1,-1],"type":"VEC3"},{"bufferView":22,"componentType":5126,"count":20,"max":[0.8125,0.8828125],"min":[0.4609375,0],"type":"VEC2"},{"bufferView":23,"componentType":5123,"count":30,"max":[19],"min":[0],"type":"SCALAR"},{"bufferView":24,"componentType":5126,"count":24,"max":[0.75,0.375,0.875],"min":[0.375,0,-0.125],"type":"VEC3"},{"bufferView":25,"componentType":5126,"count":24,"max":[1,1,1],"min":[-1,-1,-1],"type":"VEC3"},{"bufferView":26,"componentType":5126,"count":24,"max":[0.8203125,0.765625],"min":[0.25,0.0625],"type":"VEC2"},{"bufferView":27,"componentType":5123,"count":36,"max":[23],"min":[0],"type":"SCALAR"},{"bufferView":28,"componentType":5126,"count":20,"max":[-0.0625,0.125,1],"min":[-0.3125,-0.125,-1],"type":"VEC3"},{"bufferView":29,"componentType":5126,"count":20,"max":[1,1,0],"min":[-1,-1,-1],"type":"VEC3"},{"bufferView":30,"componentType":5126,"count":20,"max":[0.8125,0.8828125],"min":[0.4609375,0],"type":"VEC2"},{"bufferView":31,"componentType":5123,"count":30,"max":[19],"min":[0],"type":"SCALAR"},{"bufferView":32,"componentType":5126,"count":24,"max":[-1,0.8125,-2.3125],"min":[-1.25,0.1875,-2.6875],"type":"VEC3"},{"bufferView":33,"componentType":5126,"count":24,"max":[1,1,1],"min":[-1,-1,-1],"type":"VEC3"},{"bufferView":34,"componentType":5126,"count":24,"max":[0.78125,0.8515625],"min":[0.203125,0.734375],"type":"VEC2"},{"bufferView":35,"componentType":5123,"count":36,"max":[23],"min":[0],"type":"SCALAR"},{"bufferView":36,"componentType":5126,"count":24,"max":[1.25,0.8125,-2.3125],"min":[1,0.1875,-2.6875],"type":"VEC3"},{"bufferView":37,"componentType":5126,"count":24,"max":[1,1,1],"min":[-1,-1,-1],"type":"VEC3"},{"bufferView":38,"componentType":5126,"count":24,"max":[0.78125,0.8515625],"min":[0.203125,0.734375],"type":"VEC2"},{"bufferView":39,"componentType":5123,"count":36,"max":[23],"min":[0],"type":"SCALAR"},{"bufferView":40,"componentType":5126,"count":16,"max":[0.1875,0.1875,0.125],"min":[-0.875,-0.1875,-0.125],"type":"VEC3"},{"bufferView":41,"componentType":5126,"count":16,"max":[0,1,1],"min":[0,-1,-1],"type":"VEC3"},{"bufferView":42,"componentType":5126,"count":16,"max":[0.8359375,0.6640625],"min":[0.671875,0.0625],"type":"VEC2"},{"bufferView":43,"componentType":5123,"count":24,"max":[15],"min":[0],"type":"SCALAR"},{"bufferView":44,"componentType":5126,"count":16,"max":[0.875,0.1875,0.125],"min":[-0.1875,-0.1875,-0.125],"type":"VEC3"},{"bufferView":45,"componentType":5126,"count":16,"max":[0,1,1],"min":[0,-1,-1],"type":"VEC3"},{"bufferView":46,"componentType":5126,"count":16,"max":[0.8359375,0.6640625],"min":[0.671875,0.0625],"type":"VEC2"},{"bufferView":47,"componentType":5123,"count":24,"max":[15],"min":[0],"type":"SCALAR"},{"bufferView":48,"componentType":5126,"count":24,"max":[-1,0.8125,-2.3125],"min":[-1.25,0.1875,-2.6875],"type":"VEC3"},{"bufferView":49,"componentType":5126,"count":24,"max":[1,1,1],"min":[-1,-1,-1],"type":"VEC3"},{"bufferView":50,"componentType":5126,"count":24,"max":[0.7578125,0.84375],"min":[0.3984375,0.0625],"type":"VEC2"},{"bufferView":51,"componentType":5123,"count":36,"max":[23],"min":[0],"type":"SCALAR"},{"bufferView":52,"componentType":5126,"count":24,"max":[1.25,0.8125,-2.3125],"min":[1,0.1875,-2.6875],"type":"VEC3"},{"bufferView":53,"componentType":5126,"count":24,"max":[1,1,1],"min":[-1,-1,-1],"type":"VEC3"},{"bufferView":54,"componentType":5126,"count":24,"max":[0.7578125,0.84375],"min":[0.3984375,0.0625],"type":"VEC2"},{"bufferView":55,"componentType":5123,"count":36,"max":[23],"min":[0],"type":"SCALAR"},{"bufferView":56,"componentType":5126,"count":80,"max":[0.25,0.5,0.25],"min":[-0.25,-0.5,-0.25],"type":"VEC3"},{"bufferView":57,"componentType":5126,"count":80,"max":[1,1,1],"min":[-1,-1,-1],"type":"VEC3"},{"bufferView":58,"componentType":5126,"count":80,"max":[0.75,0.875],"min":[0,0.4140625],"type":"VEC2"},{"bufferView":59,"componentType":5123,"count":96,"max":[79],"min":[0],"type":"SCALAR"},{"bufferView":60,"componentType":5126,"count":24,"max":[0.375,2.0625,0.5625],"min":[-0.375,0.8125,-0.625],"type":"VEC3"},{"bufferView":61,"componentType":5126,"count":24,"max":[1,1,1],"min":[-1,-1,-1],"type":"VEC3"},{"bufferView":62,"componentType":5126,"count":24,"max":[0.640625,0.6953125],"min":[0,0.265625],"type":"VEC2"},{"bufferView":63,"componentType":5123,"count":36,"max":[23],"min":[0],"type":"SCALAR"},{"bufferView":64,"componentType":5126,"count":24,"max":[0.37187498807907104,0.40625,0.625],"min":[-0.37187498807907104,-0.59375,-0.625],"type":"VEC3"},{"bufferView":65,"componentType":5126,"count":24,"max":[1,1,1],"min":[-1,-1,-1],"type":"VEC3"},{"bufferView":66,"componentType":5126,"count":24,"max":[0.703125,0.703125],"min":[0.125,0],"type":"VEC2"},{"bufferView":67,"componentType":5123,"count":36,"max":[23],"min":[0],"type":"SCALAR"},{"bufferView":68,"componentType":5126,"count":24,"max":[0.25,1,1.75],"min":[-0.25,-0.0625,-0.5],"type":"VEC3"},{"bufferView":69,"componentType":5126,"count":24,"max":[1,1,1],"min":[-1,-1,-1],"type":"VEC3"},{"bufferView":70,"componentType":5126,"count":24,"max":[0.671875,0.765625],"min":[0,0],"type":"VEC2"},{"bufferView":71,"componentType":5123,"count":36,"max":[23],"min":[0],"type":"SCALAR"},{"bufferView":72,"componentType":5126,"count":24,"max":[0.375,0.125,0.1875],"min":[-0.375,0,-0.0625],"type":"VEC3"},{"bufferView":73,"componentType":5126,"count":24,"max":[1,1,1],"min":[-1,-1,-1],"type":"VEC3"},{"bufferView":74,"componentType":5126,"count":24,"max":[0.8515625,0.78125],"min":[0.140625,0.171875],"type":"VEC2"},{"bufferView":75,"componentType":5123,"count":36,"max":[23],"min":[0],"type":"SCALAR"},{"bufferView":76,"componentType":5126,"count":20,"max":[0.5,0.375,1.2468750476837158],"min":[-0.5,0,0.06562499701976776],"type":"VEC3"},{"bufferView":77,"componentType":5126,"count":20,"max":[0,1,1],"min":[-1,-1,-1],"type":"VEC3"},{"bufferView":78,"componentType":5126,"count":20,"max":[0.796875,0.5859375],"min":[0.296875,0.25],"type":"VEC2"},{"bufferView":79,"componentType":5123,"count":30,"max":[19],"min":[0],"type":"SCALAR"},{"bufferView":80,"componentType":5126,"count":24,"max":[0.0625,0.5,0.5625],"min":[-0.25,0,-0.0625],"type":"VEC3"},{"bufferView":81,"componentType":5126,"count":24,"max":[1,1,1],"min":[-1,-1,-1],"type":"VEC3"},{"bufferView":82,"componentType":5126,"count":24,"max":[0.8046875,0.8125],"min":[0.234375,0.125],"type":"VEC2"},{"bufferView":83,"componentType":5123,"count":36,"max":[23],"min":[0],"type":"SCALAR"},{"bufferView":84,"componentType":5126,"count":24,"max":[0.25,0.5,0.5625],"min":[-0.0625,0,-0.0625],"type":"VEC3"},{"bufferView":85,"componentType":5126,"count":24,"max":[1,1,1],"min":[-1,-1,-1],"type":"VEC3"},{"bufferView":86,"componentType":5126,"count":24,"max":[0.8046875,0.8125],"min":[0.234375,0.125],"type":"VEC2"},{"bufferView":87,"componentType":5123,"count":36,"max":[23],"min":[0],"type":"SCALAR"},{"bufferView":88,"componentType":5126,"count":20,"max":[0.5,0.375,1.2468750476837158],"min":[-0.5,0,0.06562499701976776],"type":"VEC3"},{"bufferView":89,"componentType":5126,"count":20,"max":[1,1,1],"min":[0,-1,-1],"type":"VEC3"},{"bufferView":90,"componentType":5126,"count":20,"max":[0.796875,0.5859375],"min":[0.296875,0.25],"type":"VEC2"},{"bufferView":91,"componentType":5123,"count":30,"max":[19],"min":[0],"type":"SCALAR"}],"materials":[{"pbrMetallicRoughness":{"metallicFactor":0,"roughnessFactor":1,"baseColorTexture":{"index":0}},"alphaMode":"MASK","alphaCutoff":0.05,"doubleSided":true}],"textures":[{"sampler":0,"source":0}],"samplers":[{"magFilter":9728,"minFilter":9728,"wrapS":33071,"wrapT":33071}],"images":[{"mimeType":"image/png","uri":"data:image/png;base64,"}],"meshes":[{"primitives":[{"mode":4,"attributes":{"POSITION":0,"NORMAL":1,"TEXCOORD_0":2},"indices":3,"material":0}]},{"primitives":[{"mode":4,"attributes":{"POSITION":4,"NORMAL":5,"TEXCOORD_0":6},"indices":7,"material":0}]},{"primitives":[{"mode":4,"attributes":{"POSITION":8,"NORMAL":9,"TEXCOORD_0":10},"indices":11,"material":0}]},{"primitives":[{"mode":4,"attributes":{"POSITION":12,"NORMAL":13,"TEXCOORD_0":14},"indices":15,"material":0}]},{"primitives":[{"mode":4,"attributes":{"POSITION":16,"NORMAL":17,"TEXCOORD_0":18},"indices":19,"material":0}]},{"primitives":[{"mode":4,"attributes":{"POSITION":20,"NORMAL":21,"TEXCOORD_0":22},"indices":23,"material":0}]},{"primitives":[{"mode":4,"attributes":{"POSITION":24,"NORMAL":25,"TEXCOORD_0":26},"indices":27,"material":0}]},{"primitives":[{"mode":4,"attributes":{"POSITION":28,"NORMAL":29,"TEXCOORD_0":30},"indices":31,"material":0}]},{"primitives":[{"mode":4,"attributes":{"POSITION":32,"NORMAL":33,"TEXCOORD_0":34},"indices":35,"material":0}]},{"primitives":[{"mode":4,"attributes":{"POSITION":36,"NORMAL":37,"TEXCOORD_0":38},"indices":39,"material":0}]},{"primitives":[{"mode":4,"attributes":{"POSITION":40,"NORMAL":41,"TEXCOORD_0":42},"indices":43,"material":0}]},{"primitives":[{"mode":4,"attributes":{"POSITION":44,"NORMAL":45,"TEXCOORD_0":46},"indices":47,"material":0}]},{"primitives":[{"mode":4,"attributes":{"POSITION":48,"NORMAL":49,"TEXCOORD_0":50},"indices":51,"material":0}]},{"primitives":[{"mode":4,"attributes":{"POSITION":52,"NORMAL":53,"TEXCOORD_0":54},"indices":55,"material":0}]},{"primitives":[{"mode":4,"attributes":{"POSITION":56,"NORMAL":57,"TEXCOORD_0":58},"indices":59,"material":0}]},{"primitives":[{"mode":4,"attributes":{"POSITION":60,"NORMAL":61,"TEXCOORD_0":62},"indices":63,"material":0}]},{"primitives":[{"mode":4,"attributes":{"POSITION":64,"NORMAL":65,"TEXCOORD_0":66},"indices":67,"material":0}]},{"primitives":[{"mode":4,"attributes":{"POSITION":68,"NORMAL":69,"TEXCOORD_0":70},"indices":71,"material":0}]},{"primitives":[{"mode":4,"attributes":{"POSITION":72,"NORMAL":73,"TEXCOORD_0":74},"indices":75,"material":0}]},{"primitives":[{"mode":4,"attributes":{"POSITION":76,"NORMAL":77,"TEXCOORD_0":78},"indices":79,"material":0}]},{"primitives":[{"mode":4,"attributes":{"POSITION":80,"NORMAL":81,"TEXCOORD_0":82},"indices":83,"material":0}]},{"primitives":[{"mode":4,"attributes":{"POSITION":84,"NORMAL":85,"TEXCOORD_0":86},"indices":87,"material":0}]},{"primitives":[{"mode":4,"attributes":{"POSITION":88,"NORMAL":89,"TEXCOORD_0":90},"indices":91,"material":0}]}]}